<?xml version="1.0" encoding="utf-8"?>
<svg xmlns="http://www.w3.org/2000/svg" viewBox="487.544 285.952 323.83 232.734">
  <g transform="matrix(.23709 0 0 .23709 482.764 286.62)">
    <path d="M419.595 332.166H299.988c-5.435 0-9.882-4.447-9.882-9.882v-22.348c0-5.435 4.447-9.882 9.882-9.882h119.607c5.435 0 9.882 4.447 9.882 9.882v22.348c0 5.435-4.447 9.882-9.882 9.882" style="fill:#464646"/>
    <path d="M716.385 953.777a20.17 20.17 0 0 1-14.168-5.789c-7.984-7.826-8.111-20.641-.283-28.623l83.226-84.893c.21-.214.331-.508.331-.807v-175.88c0-11.18 9.062-20.242 20.242-20.242s20.242 9.062 20.242 20.242v175.88c0 10.963-4.228 21.315-11.904 29.147l-83.228 84.893a20.2 20.2 0 0 1-14.458 6.072" style="fill:#16b9a6"/>
    <circle cx="603.442" cy="554.76" r="29.579" style="fill:#16b9a6"/>
    <path d="M1217.698 529.006c10.086 31.651 39.758 54.645 74.708 54.645 43.23 0 78.398-35.169 78.398-78.396s-35.169-78.396-78.398-78.396c-37.485 0-68.893 26.452-76.581 61.665h-266.35l127.004-127.004a20.25 20.25 0 0 0 5.928-14.313V202.579c0-24.218 19.703-43.92 43.923-43.92h34.301c9.655 32.358 39.672 56.022 75.125 56.022 43.228 0 78.396-35.169 78.396-78.396s-35.169-78.396-78.396-78.396c-36.994 0-68.064 25.765-76.262 60.288h-33.165c-46.542 0-84.406 37.863-84.406 84.404v136.243L856.001 524.743H712.483c-11.18 0-20.242 9.062-20.242 20.242s9.062 20.242 20.242 20.242h140.424l189.771 192.6v60.512c0 44.126 35.899 80.026 80.026 80.026h37.321c8.948 33.446 39.504 58.155 75.733 58.155 43.228 0 78.396-35.169 78.396-78.396s-35.169-78.396-78.396-78.396c-36.229 0-66.784 24.708-75.733 58.155h-37.321c-21.804 0-39.542-17.738-39.542-39.543v-68.808c0-5.316-2.091-10.42-5.824-14.207l-185.945-188.72 17.599-17.599zm74.709-61.665c20.907 0 37.915 17.008 37.915 37.913s-17.008 37.913-37.915 37.913c-20.905 0-37.913-17.008-37.913-37.913-.001-20.905 17.007-37.913 37.913-37.913M1235.756 98.37c20.905 0 37.913 17.008 37.913 37.913s-17.008 37.913-37.913 37.913-37.913-17.008-37.913-37.913 17.008-37.913 37.913-37.913m0 741.84c20.905 0 37.913 17.008 37.913 37.913s-17.008 37.913-37.913 37.913-37.913-17.008-37.913-37.913 17.008-37.913 37.913-37.913" style="fill:#16b9a6"/>
    <path d="M186.216 333.065a20.18 20.18 0 0 1-14.215-5.831c-7.958-7.852-8.045-20.667-.195-28.626l52.614-53.332-52.459-52.038c-7.937-7.874-7.988-20.69-.115-28.626 7.873-7.937 20.688-7.991 28.626-.115l66.789 66.254c7.921 7.858 7.99 20.643.155 28.586l-66.789 67.702a20.18 20.18 0 0 1-14.411 6.026" style="fill:#464646"/>
    <path d="m827.549 97.432-.341 350.605-40.483-.043.341-350.605c.021-7.244-2.791-14.041-7.905-19.155-5.114-5.092-11.889-7.905-19.112-7.905h-.043L105.864 71.65c-12.273.021-22.266 10.036-22.266 22.308l-.341 579.014c0 7.053 2.749 13.658 7.734 18.644 4.986 4.965 11.655 7.734 18.665 7.671l320.498-1.236 37.308 40.334-357.657 1.385h-.256c-17.791 0-34.517-6.925-47.131-19.496-12.678-12.614-19.645-29.425-19.645-47.322l.341-579.014c.021-34.538 28.125-62.685 62.664-62.77l654.142-1.321h.128c18.026 0 34.965 7.01 47.706 19.751 12.785 12.763 19.816 29.766 19.795 47.834" style="fill:#464646"/>
    <path d="M710.51 616.694c10.561-18.218 16.637-39.36 16.637-61.934 0-22.937-6.266-44.401-17.144-62.816l2.928-2.861 17.75-17.343c4.654-4.547 4.74-12.006.193-16.66l-24.876-25.46c-4.547-4.654-12.006-4.74-16.66-.193l-20.69 20.216a123 123 0 0 0-34.621-14.771l.035-4.063.216-24.815c.056-6.506-5.172-11.827-11.679-11.883l-35.594-.309c-6.507-.056-11.827 5.172-11.883 11.679l-.251 28.928a123 123 0 0 0-36.523 15.164l-17.608-17.252c-4.648-4.554-12.107-4.477-16.661.17l-24.911 25.425c-4.554 4.648-4.478 12.107.17 16.661l17.61 17.253a122.9 122.9 0 0 0-13.624 33.351H458.68c-6.507 0-11.781 5.275-11.781 11.781v35.595c0 6.507 5.275 11.781 11.781 11.781h24.644a122.9 122.9 0 0 0 13.302 32.79l-1.601 1.551-17.827 17.264c-4.674 4.527-4.794 11.985-.267 16.659l24.762 25.57c4.527 4.674 11.985 4.794 16.659.267l19.454-18.84a123 123 0 0 0 36.417 15.362l.005 2.219.059 24.816c.016 6.507 5.303 11.769 11.81 11.753l35.595-.085c6.507-.016 11.769-5.303 11.753-11.81l-.065-27.059a123 123 0 0 0 36.12-15.466l1.61 1.55 17.876 17.213c4.687 4.513 12.145 4.372 16.658-.315l24.69-25.641c4.513-4.687 4.372-12.145-.315-16.658zm-107.068 17.403c-43.817 0-79.337-35.52-79.337-79.337s35.52-79.337 79.337-79.337 79.337 35.52 79.337 79.337-35.521 79.337-79.337 79.337" style="fill:#16b9a6"/>
  </g>
</svg>